<?xml version="1.0" encoding="UTF-8"?>
<svg xmlns="http://www.w3.org/2000/svg" xmlns:xlink="http://www.w3.org/1999/xlink" width="224.87999pt" height="187.499995pt" viewBox="0 0 224.87999 187.499995" version="1.2">
<defs>
<clipPath id="clip1">
  <path d="M 0.238281 0 L 224.519531 0 L 224.519531 187 L 0.238281 187 Z M 0.238281 0 "/>
</clipPath>
<clipPath id="clip2">
  <path d="M 24.507812 18.699219 L 200.289062 18.699219 L 200.289062 168.300781 L 24.507812 168.300781 Z M 24.507812 18.699219 "/>
</clipPath>
<filter id="alpha" filterUnits="objectBoundingBox" x="0%" y="0%" width="100%" height="100%">
  <feColorMatrix type="matrix" in="SourceGraphic" values="0 0 0 0 1 0 0 0 0 1 0 0 0 0 1 0 0 0 1 0"/>
</filter>
<mask id="mask0">
  <g filter="url(#alpha)">
<rect x="0" y="0" width="224.87999" height="187.499995" style="fill:rgb(0%,0%,0%);fill-opacity:0.149;stroke:none;"/>
  </g>
</mask>
<clipPath id="clip4">
  <path d="M 0.507812 0.699219 L 176.289062 0.699219 L 176.289062 150.300781 L 0.507812 150.300781 Z M 0.507812 0.699219 "/>
</clipPath>
<clipPath id="clip3">
  <rect x="0" y="0" width="177" height="151"/>
</clipPath>
<g id="surface5" clip-path="url(#clip3)">
<g clip-path="url(#clip4)" clip-rule="nonzero">
<path style=" stroke:none;fill-rule:nonzero;fill:rgb(100%,100%,100%);fill-opacity:1;" d="M 0.507812 0.699219 L 176.289062 0.699219 L 176.289062 150.300781 L 0.507812 150.300781 Z M 0.507812 0.699219 "/>
</g>
</g>
<clipPath id="clip6">
  <path d="M 0.0351562 0.648438 L 7.695312 0.648438 L 7.695312 14.292969 L 0.0351562 14.292969 Z M 0.0351562 0.648438 "/>
</clipPath>
<clipPath id="clip8">
  <path d="M 0.0351562 0.648438 L 7.695312 0.648438 L 7.695312 14.292969 L 0.0351562 14.292969 Z M 0.0351562 0.648438 "/>
</clipPath>
<clipPath id="clip7">
  <rect x="0" y="0" width="8" height="15"/>
</clipPath>
<g id="surface9" clip-path="url(#clip7)">
<g clip-path="url(#clip8)" clip-rule="nonzero">
<path style=" stroke:none;fill-rule:nonzero;fill:rgb(100%,100%,100%);fill-opacity:0.949;" d="M 6.773438 14.234375 C 6.332031 14.234375 5.894531 14.1875 5.460938 14.101562 C 5.027344 14.015625 4.605469 13.890625 4.199219 13.71875 C 3.789062 13.550781 3.402344 13.34375 3.035156 13.097656 C 2.667969 12.851562 2.328125 12.574219 2.015625 12.261719 C 1.703125 11.949219 1.421875 11.609375 1.175781 11.238281 C 0.933594 10.871094 0.722656 10.484375 0.554688 10.078125 C 0.386719 9.667969 0.257812 9.246094 0.171875 8.8125 C 0.0859375 8.378906 0.0429688 7.941406 0.0429688 7.5 C 0.0429688 7.058594 0.0859375 6.621094 0.171875 6.1875 C 0.257812 5.753906 0.386719 5.332031 0.554688 4.925781 C 0.722656 4.515625 0.933594 4.128906 1.175781 3.761719 C 1.421875 3.394531 1.703125 3.054688 2.015625 2.742188 C 2.328125 2.429688 2.667969 2.148438 3.035156 1.902344 C 3.402344 1.660156 3.789062 1.449219 4.199219 1.28125 C 4.605469 1.113281 5.027344 0.984375 5.460938 0.898438 C 5.894531 0.8125 6.332031 0.769531 6.773438 0.769531 C 6.980469 0.769531 7.15625 0.839844 7.300781 0.988281 C 7.449219 1.132812 7.519531 1.308594 7.519531 1.515625 C 7.519531 1.722656 7.449219 1.898438 7.300781 2.046875 C 7.15625 2.191406 6.980469 2.265625 6.773438 2.265625 C 6.429688 2.265625 6.089844 2.296875 5.75 2.363281 C 5.414062 2.433594 5.085938 2.53125 4.769531 2.664062 C 4.453125 2.792969 4.148438 2.957031 3.863281 3.148438 C 3.578125 3.339844 3.3125 3.554688 3.070312 3.796875 C 2.828125 4.042969 2.609375 4.304688 2.417969 4.589844 C 2.226562 4.878906 2.066406 5.179688 1.933594 5.496094 C 1.804688 5.816406 1.703125 6.140625 1.636719 6.480469 C 1.570312 6.816406 1.535156 7.15625 1.535156 7.5 C 1.535156 7.84375 1.570312 8.183594 1.636719 8.523438 C 1.703125 8.859375 1.804688 9.1875 1.933594 9.503906 C 2.066406 9.820312 2.226562 10.125 2.417969 10.410156 C 2.609375 10.695312 2.828125 10.960938 3.070312 11.203125 C 3.3125 11.445312 3.578125 11.664062 3.863281 11.855469 C 4.148438 12.046875 4.453125 12.207031 4.769531 12.339844 C 5.085938 12.46875 5.414062 12.570312 5.75 12.636719 C 6.089844 12.703125 6.429688 12.738281 6.773438 12.738281 C 6.980469 12.738281 7.15625 12.808594 7.300781 12.957031 C 7.449219 13.101562 7.519531 13.277344 7.519531 13.484375 C 7.519531 13.691406 7.449219 13.867188 7.300781 14.011719 C 7.15625 14.160156 6.980469 14.234375 6.773438 14.234375 Z M 6.773438 14.234375 "/>
</g>
</g>
<clipPath id="clip5">
  <rect x="0" y="0" width="8" height="15"/>
</clipPath>
<g id="surface11" clip-path="url(#clip5)">
<g clip-path="url(#clip6)" clip-rule="nonzero">
<use xlink:href="#surface9" transform="matrix(1,0,0,1,-0.000000000000028422,-0.000000000000014211)"/>
</g>
</g>
</defs>
<g id="surface1">
<g clip-path="url(#clip1)" clip-rule="nonzero">
<path style=" stroke:none;fill-rule:nonzero;fill:rgb(100%,100%,100%);fill-opacity:1;" d="M 0.238281 0 L 224.640625 0 L 224.640625 194.480469 L 0.238281 194.480469 Z M 0.238281 0 "/>
<path style=" stroke:none;fill-rule:nonzero;fill:rgb(100%,100%,100%);fill-opacity:1;" d="M 0.238281 0 L 224.640625 0 L 224.640625 187 L 0.238281 187 Z M 0.238281 0 "/>
<path style=" stroke:none;fill-rule:nonzero;fill:rgb(2.349854%,3.529358%,5.879211%);fill-opacity:1;" d="M 0.238281 0 L 224.640625 0 L 224.640625 187 L 0.238281 187 Z M 0.238281 0 "/>
</g>
<g clip-path="url(#clip2)" clip-rule="nonzero">
<path style=" stroke:none;fill-rule:nonzero;fill:rgb(11.759949%,16.079712%,19.999695%);fill-opacity:0.451;" d="M 24.507812 18.699219 L 200.289062 18.699219 L 200.289062 168.300781 L 24.507812 168.300781 Z M 24.507812 18.699219 "/>
<use xlink:href="#surface5" transform="matrix(1,0,0,1,24,18)" mask="url(#mask0)"/>
</g>
<use xlink:href="#surface11" transform="matrix(1,0,0,1,106,86)"/>
</g>
</svg>
